<mxfile host="app.diagrams.net" modified="2023-02-28T19:54:29.879Z" agent="5.0 (X11; Linux x86_64) AppleWebKit/537.36 (KHTML, like Gecko) Chrome/110.0.0.0 Safari/537.36" etag="s3WzWmSNABhPrI55M8Oy" version="20.8.23" type="github">
  <diagram id="6a731a19-8d31-9384-78a2-239565b7b9f0" name="Page-1">
    <mxGraphModel dx="3375" dy="1912" grid="1" gridSize="10" guides="1" tooltips="1" connect="1" arrows="1" fold="1" page="1" pageScale="1" pageWidth="1169" pageHeight="827" background="none" math="0" shadow="0">
      <root>
        <mxCell id="0" />
        <mxCell id="1" parent="0" />
        <mxCell id="1745" value="" style="edgeStyle=none;rounded=0;jumpStyle=none;html=1;shadow=0;labelBackgroundColor=none;startArrow=none;startFill=0;endArrow=classic;endFill=1;jettySize=auto;orthogonalLoop=1;strokeColor=#2F5B7C;strokeWidth=3;fontFamily=Helvetica;fontSize=16;fontColor=#23445D;spacing=5;" parent="1" source="1749" target="1764" edge="1">
          <mxGeometry relative="1" as="geometry" />
        </mxCell>
        <mxCell id="1746" value="" style="edgeStyle=none;rounded=0;jumpStyle=none;html=1;shadow=0;labelBackgroundColor=none;startArrow=none;startFill=0;endArrow=classic;endFill=1;jettySize=auto;orthogonalLoop=1;strokeColor=#2F5B7C;strokeWidth=3;fontFamily=Helvetica;fontSize=16;fontColor=#23445D;spacing=5;" parent="1" source="1749" target="1771" edge="1">
          <mxGeometry relative="1" as="geometry" />
        </mxCell>
        <mxCell id="1747" value="" style="edgeStyle=none;rounded=0;jumpStyle=none;html=1;shadow=0;labelBackgroundColor=none;startArrow=none;startFill=0;endArrow=classic;endFill=1;jettySize=auto;orthogonalLoop=1;strokeColor=#2F5B7C;strokeWidth=3;fontFamily=Helvetica;fontSize=16;fontColor=#23445D;spacing=5;" parent="1" source="1749" target="1760" edge="1">
          <mxGeometry relative="1" as="geometry" />
        </mxCell>
        <mxCell id="1748" value="" style="edgeStyle=none;rounded=0;jumpStyle=none;html=1;shadow=0;labelBackgroundColor=none;startArrow=none;startFill=0;endArrow=classic;endFill=1;jettySize=auto;orthogonalLoop=1;strokeColor=#2F5B7C;strokeWidth=3;fontFamily=Helvetica;fontSize=16;fontColor=#23445D;spacing=5;" parent="1" source="1749" target="1753" edge="1">
          <mxGeometry relative="1" as="geometry" />
        </mxCell>
        <mxCell id="1749" value="Проект" style="rounded=1;whiteSpace=wrap;html=1;shadow=0;labelBackgroundColor=none;strokeColor=none;strokeWidth=3;fillColor=#2F5B7C;fontFamily=Helvetica;fontSize=16;fontColor=#FFFFFF;align=center;fontStyle=1;spacing=5;arcSize=7;perimeterSpacing=2;" parent="1" vertex="1">
          <mxGeometry x="495" y="380.5" width="150" height="70" as="geometry" />
        </mxCell>
        <mxCell id="1751" value="" style="edgeStyle=none;rounded=1;jumpStyle=none;html=1;shadow=0;labelBackgroundColor=none;startArrow=none;startFill=0;jettySize=auto;orthogonalLoop=1;strokeColor=#E85642;strokeWidth=3;fontFamily=Helvetica;fontSize=14;fontColor=#FFFFFF;spacing=5;fontStyle=1;fillColor=#b0e3e6;" parent="1" source="1753" target="1755" edge="1">
          <mxGeometry relative="1" as="geometry" />
        </mxCell>
        <mxCell id="1753" value="Личный кабинет/расписание" style="rounded=1;whiteSpace=wrap;html=1;shadow=0;labelBackgroundColor=none;strokeColor=none;strokeWidth=3;fillColor=#e85642;fontFamily=Helvetica;fontSize=14;fontColor=#FFFFFF;align=center;spacing=5;fontStyle=1;arcSize=7;perimeterSpacing=2;" parent="1" vertex="1">
          <mxGeometry x="215" y="385.5" width="150" height="60" as="geometry" />
        </mxCell>
        <mxCell id="L97sJZusxxm4LGBCyc9_-1816" value="" style="edgeStyle=orthogonalEdgeStyle;rounded=0;orthogonalLoop=1;jettySize=auto;html=1;" edge="1" parent="1" source="1755" target="L97sJZusxxm4LGBCyc9_-1815">
          <mxGeometry relative="1" as="geometry" />
        </mxCell>
        <mxCell id="1755" value="Расписание" style="rounded=1;whiteSpace=wrap;html=1;shadow=0;labelBackgroundColor=none;strokeColor=none;strokeWidth=3;fillColor=#f08e81;fontFamily=Helvetica;fontSize=14;fontColor=#FFFFFF;align=center;spacing=5;fontStyle=0;arcSize=7;perimeterSpacing=2;" parent="1" vertex="1">
          <mxGeometry x="14" y="385.5" width="150" height="60" as="geometry" />
        </mxCell>
        <mxCell id="1757" value="" style="edgeStyle=none;rounded=0;jumpStyle=none;html=1;shadow=0;labelBackgroundColor=none;startArrow=none;startFill=0;endArrow=classic;endFill=1;jettySize=auto;orthogonalLoop=1;strokeColor=#1699D3;strokeWidth=3;fontFamily=Helvetica;fontSize=14;fontColor=#FFFFFF;spacing=5;" parent="1" source="1760" target="1763" edge="1">
          <mxGeometry relative="1" as="geometry" />
        </mxCell>
        <mxCell id="1758" value="" style="edgeStyle=none;rounded=0;jumpStyle=none;html=1;shadow=0;labelBackgroundColor=none;startArrow=none;startFill=0;endArrow=classic;endFill=1;jettySize=auto;orthogonalLoop=1;strokeColor=#1699D3;strokeWidth=3;fontFamily=Helvetica;fontSize=14;fontColor=#FFFFFF;spacing=5;" parent="1" source="1760" target="1762" edge="1">
          <mxGeometry relative="1" as="geometry" />
        </mxCell>
        <mxCell id="1759" value="" style="edgeStyle=none;rounded=0;jumpStyle=none;html=1;shadow=0;labelBackgroundColor=none;startArrow=none;startFill=0;endArrow=classic;endFill=1;jettySize=auto;orthogonalLoop=1;strokeColor=#1699D3;strokeWidth=3;fontFamily=Helvetica;fontSize=14;fontColor=#FFFFFF;spacing=5;" parent="1" source="1760" target="1761" edge="1">
          <mxGeometry relative="1" as="geometry" />
        </mxCell>
        <mxCell id="1760" value="Оплата" style="rounded=1;whiteSpace=wrap;html=1;shadow=0;labelBackgroundColor=none;strokeColor=none;strokeWidth=3;fillColor=#1699d3;fontFamily=Helvetica;fontSize=14;fontColor=#FFFFFF;align=center;spacing=5;fontStyle=1;arcSize=7;perimeterSpacing=2;" parent="1" vertex="1">
          <mxGeometry x="495" y="570.5" width="150" height="60" as="geometry" />
        </mxCell>
        <mxCell id="L97sJZusxxm4LGBCyc9_-1807" style="edgeStyle=orthogonalEdgeStyle;rounded=0;orthogonalLoop=1;jettySize=auto;html=1;exitX=0.5;exitY=1;exitDx=0;exitDy=0;entryX=0.5;entryY=0;entryDx=0;entryDy=0;" edge="1" parent="1" source="1761" target="L97sJZusxxm4LGBCyc9_-1801">
          <mxGeometry relative="1" as="geometry" />
        </mxCell>
        <mxCell id="1761" value="Ошибка платежа" style="rounded=1;whiteSpace=wrap;html=1;shadow=0;labelBackgroundColor=none;strokeColor=none;strokeWidth=3;fillColor=#64bbe2;fontFamily=Helvetica;fontSize=14;fontColor=#FFFFFF;align=center;spacing=5;arcSize=7;perimeterSpacing=2;" parent="1" vertex="1">
          <mxGeometry x="695" y="650.5" width="150" height="60" as="geometry" />
        </mxCell>
        <mxCell id="L97sJZusxxm4LGBCyc9_-1809" value="" style="edgeStyle=orthogonalEdgeStyle;rounded=0;orthogonalLoop=1;jettySize=auto;html=1;" edge="1" parent="1" source="1762" target="L97sJZusxxm4LGBCyc9_-1808">
          <mxGeometry relative="1" as="geometry" />
        </mxCell>
        <mxCell id="1762" value="Успешный платеж" style="rounded=1;whiteSpace=wrap;html=1;shadow=0;labelBackgroundColor=none;strokeColor=none;strokeWidth=3;fillColor=#64bbe2;fontFamily=Helvetica;fontSize=14;fontColor=#FFFFFF;align=center;spacing=5;arcSize=7;perimeterSpacing=2;" parent="1" vertex="1">
          <mxGeometry x="495" y="716.5" width="150" height="60" as="geometry" />
        </mxCell>
        <mxCell id="L97sJZusxxm4LGBCyc9_-1804" value="" style="edgeStyle=orthogonalEdgeStyle;rounded=0;orthogonalLoop=1;jettySize=auto;html=1;" edge="1" parent="1" source="1763" target="L97sJZusxxm4LGBCyc9_-1803">
          <mxGeometry relative="1" as="geometry" />
        </mxCell>
        <mxCell id="L97sJZusxxm4LGBCyc9_-1806" value="" style="edgeStyle=orthogonalEdgeStyle;rounded=0;orthogonalLoop=1;jettySize=auto;html=1;" edge="1" parent="1" source="1763" target="L97sJZusxxm4LGBCyc9_-1805">
          <mxGeometry relative="1" as="geometry" />
        </mxCell>
        <mxCell id="1763" value="Главная страница оплаты" style="rounded=1;whiteSpace=wrap;html=1;shadow=0;labelBackgroundColor=none;strokeColor=none;strokeWidth=3;fillColor=#64bbe2;fontFamily=Helvetica;fontSize=14;fontColor=#FFFFFF;align=center;spacing=5;arcSize=7;perimeterSpacing=2;" parent="1" vertex="1">
          <mxGeometry x="295" y="650.5" width="150" height="60" as="geometry" />
        </mxCell>
        <mxCell id="1764" value="Регистрация/авторизация" style="rounded=1;whiteSpace=wrap;html=1;shadow=0;labelBackgroundColor=none;strokeColor=none;strokeWidth=3;fillColor=#F08705;fontFamily=Helvetica;fontSize=14;fontColor=#FFFFFF;align=center;spacing=5;fontStyle=1;arcSize=7;perimeterSpacing=2;" parent="1" vertex="1">
          <mxGeometry x="495" y="200.5" width="150" height="60" as="geometry" />
        </mxCell>
        <mxCell id="L97sJZusxxm4LGBCyc9_-1793" value="" style="edgeStyle=orthogonalEdgeStyle;rounded=0;orthogonalLoop=1;jettySize=auto;html=1;" edge="1" parent="1" source="1765" target="L97sJZusxxm4LGBCyc9_-1792">
          <mxGeometry relative="1" as="geometry" />
        </mxCell>
        <mxCell id="1765" value="Авторизация" style="rounded=1;whiteSpace=wrap;html=1;shadow=0;labelBackgroundColor=none;strokeColor=none;strokeWidth=3;fillColor=#f5af58;fontFamily=Helvetica;fontSize=14;fontColor=#FFFFFF;align=center;spacing=5;arcSize=7;perimeterSpacing=2;" parent="1" vertex="1">
          <mxGeometry x="695" y="110.5" width="150" height="60" as="geometry" />
        </mxCell>
        <mxCell id="1766" value="" style="edgeStyle=none;rounded=0;jumpStyle=none;html=1;shadow=0;labelBackgroundColor=none;startArrow=none;startFill=0;endArrow=classic;endFill=1;jettySize=auto;orthogonalLoop=1;strokeColor=#F08705;strokeWidth=3;fontFamily=Helvetica;fontSize=14;fontColor=#FFFFFF;spacing=5;" parent="1" source="1764" target="1765" edge="1">
          <mxGeometry relative="1" as="geometry" />
        </mxCell>
        <mxCell id="L97sJZusxxm4LGBCyc9_-1790" value="" style="edgeStyle=orthogonalEdgeStyle;rounded=0;orthogonalLoop=1;jettySize=auto;html=1;" edge="1" parent="1" source="1769" target="L97sJZusxxm4LGBCyc9_-1789">
          <mxGeometry relative="1" as="geometry" />
        </mxCell>
        <mxCell id="1769" value="Регистрация" style="rounded=1;whiteSpace=wrap;html=1;shadow=0;labelBackgroundColor=none;strokeColor=none;strokeWidth=3;fillColor=#f5af58;fontFamily=Helvetica;fontSize=14;fontColor=#FFFFFF;align=center;spacing=5;arcSize=7;perimeterSpacing=2;" parent="1" vertex="1">
          <mxGeometry x="295" y="110.5" width="150" height="60" as="geometry" />
        </mxCell>
        <mxCell id="1770" value="" style="edgeStyle=none;rounded=0;jumpStyle=none;html=1;shadow=0;labelBackgroundColor=none;startArrow=none;startFill=0;endArrow=classic;endFill=1;jettySize=auto;orthogonalLoop=1;strokeColor=#F08705;strokeWidth=3;fontFamily=Helvetica;fontSize=14;fontColor=#FFFFFF;spacing=5;" parent="1" source="1764" target="1769" edge="1">
          <mxGeometry relative="1" as="geometry" />
        </mxCell>
        <mxCell id="L97sJZusxxm4LGBCyc9_-1788" value="" style="edgeStyle=orthogonalEdgeStyle;rounded=0;orthogonalLoop=1;jettySize=auto;html=1;" edge="1" parent="1" source="1771" target="L97sJZusxxm4LGBCyc9_-1787">
          <mxGeometry relative="1" as="geometry" />
        </mxCell>
        <mxCell id="1771" value="Основная страница" style="rounded=1;whiteSpace=wrap;html=1;shadow=0;labelBackgroundColor=none;strokeColor=none;strokeWidth=3;fillColor=#12aab5;fontFamily=Helvetica;fontSize=14;fontColor=#FFFFFF;align=center;spacing=5;fontStyle=1;arcSize=7;perimeterSpacing=2;" parent="1" vertex="1">
          <mxGeometry x="795" y="385.4999999999999" width="150" height="60" as="geometry" />
        </mxCell>
        <mxCell id="L97sJZusxxm4LGBCyc9_-1798" value="" style="edgeStyle=orthogonalEdgeStyle;rounded=0;orthogonalLoop=1;jettySize=auto;html=1;" edge="1" parent="1" source="1772" target="L97sJZusxxm4LGBCyc9_-1797">
          <mxGeometry relative="1" as="geometry">
            <Array as="points">
              <mxPoint x="1005" y="610" />
              <mxPoint x="1005" y="610" />
            </Array>
          </mxGeometry>
        </mxCell>
        <mxCell id="L97sJZusxxm4LGBCyc9_-1800" value="" style="edgeStyle=orthogonalEdgeStyle;rounded=0;orthogonalLoop=1;jettySize=auto;html=1;" edge="1" parent="1" source="1772" target="L97sJZusxxm4LGBCyc9_-1799">
          <mxGeometry relative="1" as="geometry" />
        </mxCell>
        <mxCell id="1772" value="Видеоуроки" style="rounded=1;whiteSpace=wrap;html=1;shadow=0;labelBackgroundColor=none;strokeColor=none;strokeWidth=3;fillColor=#61c6ce;fontFamily=Helvetica;fontSize=14;fontColor=#FFFFFF;align=center;spacing=5;fontStyle=0;arcSize=7;perimeterSpacing=2;" parent="1" vertex="1">
          <mxGeometry x="875" y="524.5" width="150" height="60" as="geometry" />
        </mxCell>
        <mxCell id="1773" value="" style="edgeStyle=none;rounded=1;jumpStyle=none;html=1;shadow=0;labelBackgroundColor=none;startArrow=none;startFill=0;jettySize=auto;orthogonalLoop=1;strokeColor=#12AAB5;strokeWidth=3;fontFamily=Helvetica;fontSize=14;fontColor=#FFFFFF;spacing=5;fontStyle=1;fillColor=#b0e3e6;" parent="1" source="1771" target="1772" edge="1">
          <mxGeometry relative="1" as="geometry" />
        </mxCell>
        <mxCell id="L97sJZusxxm4LGBCyc9_-1780" value="" style="edgeStyle=orthogonalEdgeStyle;rounded=0;orthogonalLoop=1;jettySize=auto;html=1;" edge="1" parent="1" source="1778" target="L97sJZusxxm4LGBCyc9_-1779">
          <mxGeometry relative="1" as="geometry">
            <Array as="points">
              <mxPoint x="950" y="170" />
              <mxPoint x="950" y="170" />
            </Array>
          </mxGeometry>
        </mxCell>
        <mxCell id="L97sJZusxxm4LGBCyc9_-1782" value="" style="edgeStyle=orthogonalEdgeStyle;rounded=0;orthogonalLoop=1;jettySize=auto;html=1;" edge="1" parent="1" source="1778" target="L97sJZusxxm4LGBCyc9_-1781">
          <mxGeometry relative="1" as="geometry" />
        </mxCell>
        <mxCell id="1778" value="About" style="rounded=1;whiteSpace=wrap;html=1;shadow=0;labelBackgroundColor=none;strokeColor=none;strokeWidth=3;fillColor=#61c6ce;fontFamily=Helvetica;fontSize=14;fontColor=#FFFFFF;align=center;spacing=5;fontStyle=0;arcSize=7;perimeterSpacing=2;" parent="1" vertex="1">
          <mxGeometry x="875" y="244.5" width="150" height="60" as="geometry" />
        </mxCell>
        <mxCell id="1779" value="" style="edgeStyle=none;rounded=1;jumpStyle=none;html=1;shadow=0;labelBackgroundColor=none;startArrow=none;startFill=0;jettySize=auto;orthogonalLoop=1;strokeColor=#12AAB5;strokeWidth=3;fontFamily=Helvetica;fontSize=14;fontColor=#FFFFFF;spacing=5;fontStyle=1;fillColor=#b0e3e6;" parent="1" source="1771" target="1778" edge="1">
          <mxGeometry relative="1" as="geometry" />
        </mxCell>
        <mxCell id="L97sJZusxxm4LGBCyc9_-1779" value="О нас" style="rounded=1;whiteSpace=wrap;html=1;shadow=0;labelBackgroundColor=none;strokeColor=none;strokeWidth=3;fillColor=#61c6ce;fontFamily=Helvetica;fontSize=14;fontColor=#FFFFFF;align=center;spacing=5;fontStyle=0;arcSize=7;perimeterSpacing=2;" vertex="1" parent="1">
          <mxGeometry x="920" y="117.75" width="115" height="45.5" as="geometry" />
        </mxCell>
        <mxCell id="L97sJZusxxm4LGBCyc9_-1781" value="Цены" style="rounded=1;whiteSpace=wrap;html=1;shadow=0;labelBackgroundColor=none;strokeColor=none;strokeWidth=3;fillColor=#61c6ce;fontFamily=Helvetica;fontSize=14;fontColor=#FFFFFF;align=center;spacing=5;fontStyle=0;arcSize=7;perimeterSpacing=2;" vertex="1" parent="1">
          <mxGeometry x="1060" y="170" width="95" height="45.5" as="geometry" />
        </mxCell>
        <mxCell id="L97sJZusxxm4LGBCyc9_-1795" value="" style="edgeStyle=orthogonalEdgeStyle;rounded=0;orthogonalLoop=1;jettySize=auto;html=1;" edge="1" parent="1" source="L97sJZusxxm4LGBCyc9_-1787" target="L97sJZusxxm4LGBCyc9_-1794">
          <mxGeometry relative="1" as="geometry" />
        </mxCell>
        <mxCell id="L97sJZusxxm4LGBCyc9_-1787" value="&lt;span style=&quot;font-weight: normal;&quot;&gt;Обратная связь&lt;/span&gt;" style="rounded=1;whiteSpace=wrap;html=1;fontSize=14;fillColor=#61C6CE;strokeColor=none;fontColor=#FFFFFF;shadow=0;labelBackgroundColor=none;strokeWidth=3;spacing=5;fontStyle=1;arcSize=7;" vertex="1" parent="1">
          <mxGeometry x="1040" y="385.4999999999999" width="120" height="60" as="geometry" />
        </mxCell>
        <mxCell id="L97sJZusxxm4LGBCyc9_-1789" value="Имя&lt;br&gt;Фамилия&lt;br&gt;e-mail&lt;br&gt;Пароль" style="rounded=1;whiteSpace=wrap;html=1;shadow=0;labelBackgroundColor=none;strokeColor=none;strokeWidth=3;fillColor=#f5af58;fontFamily=Helvetica;fontSize=14;fontColor=#FFFFFF;align=center;spacing=5;arcSize=7;perimeterSpacing=2;" vertex="1" parent="1">
          <mxGeometry x="295" y="-39.5" width="150" height="70" as="geometry" />
        </mxCell>
        <mxCell id="L97sJZusxxm4LGBCyc9_-1792" value="e-mail&lt;br style=&quot;border-color: var(--border-color);&quot;&gt;Пароль" style="whiteSpace=wrap;html=1;fontSize=14;fillColor=#f5af58;strokeColor=none;fontColor=#FFFFFF;rounded=1;shadow=0;labelBackgroundColor=none;strokeWidth=3;spacing=5;arcSize=7;" vertex="1" parent="1">
          <mxGeometry x="710" y="-29.5" width="120" height="60" as="geometry" />
        </mxCell>
        <mxCell id="L97sJZusxxm4LGBCyc9_-1794" value="&lt;span style=&quot;font-weight: normal;&quot;&gt;&amp;nbsp;email&lt;br&gt;telegram&lt;br&gt;&lt;/span&gt;" style="rounded=1;whiteSpace=wrap;html=1;fontSize=14;fillColor=#61C6CE;strokeColor=none;fontColor=#FFFFFF;shadow=0;labelBackgroundColor=none;strokeWidth=3;spacing=5;fontStyle=1;arcSize=7;" vertex="1" parent="1">
          <mxGeometry x="1240" y="385.4999999999999" width="120" height="60" as="geometry" />
        </mxCell>
        <mxCell id="L97sJZusxxm4LGBCyc9_-1797" value="&amp;nbsp;для авторизованных пользователей" style="rounded=1;whiteSpace=wrap;html=1;shadow=0;labelBackgroundColor=none;strokeColor=none;strokeWidth=3;fillColor=#61c6ce;fontFamily=Helvetica;fontSize=14;fontColor=#FFFFFF;align=center;spacing=5;fontStyle=0;arcSize=7;perimeterSpacing=2;" vertex="1" parent="1">
          <mxGeometry x="930" y="680" width="150" height="60" as="geometry" />
        </mxCell>
        <mxCell id="L97sJZusxxm4LGBCyc9_-1799" value="&amp;nbsp;для НЕавторизованных пользователей" style="rounded=1;whiteSpace=wrap;html=1;shadow=0;labelBackgroundColor=none;strokeColor=none;strokeWidth=3;fillColor=#61c6ce;fontFamily=Helvetica;fontSize=14;fontColor=#FFFFFF;align=center;spacing=5;fontStyle=0;arcSize=7;perimeterSpacing=2;" vertex="1" parent="1">
          <mxGeometry x="1105" y="524.5" width="150" height="60" as="geometry" />
        </mxCell>
        <mxCell id="L97sJZusxxm4LGBCyc9_-1801" value="Повторная оплата" style="whiteSpace=wrap;html=1;fontSize=14;fillColor=#64bbe2;strokeColor=none;fontColor=#FFFFFF;rounded=1;shadow=0;labelBackgroundColor=none;strokeWidth=3;spacing=5;arcSize=7;" vertex="1" parent="1">
          <mxGeometry x="710" y="790.5" width="120" height="60" as="geometry" />
        </mxCell>
        <mxCell id="L97sJZusxxm4LGBCyc9_-1803" value="Интеграция с платежной системой" style="whiteSpace=wrap;html=1;fontSize=14;fillColor=#64bbe2;strokeColor=none;fontColor=#FFFFFF;rounded=1;shadow=0;labelBackgroundColor=none;strokeWidth=3;spacing=5;arcSize=7;" vertex="1" parent="1">
          <mxGeometry x="80" y="650.5" width="120" height="60" as="geometry" />
        </mxCell>
        <mxCell id="L97sJZusxxm4LGBCyc9_-1805" value="Получение данных для платежа" style="rounded=1;whiteSpace=wrap;html=1;shadow=0;labelBackgroundColor=none;strokeColor=none;strokeWidth=3;fillColor=#64bbe2;fontFamily=Helvetica;fontSize=14;fontColor=#FFFFFF;align=center;spacing=5;arcSize=7;perimeterSpacing=2;" vertex="1" parent="1">
          <mxGeometry x="200" y="790.5" width="150" height="60" as="geometry" />
        </mxCell>
        <mxCell id="L97sJZusxxm4LGBCyc9_-1812" value="" style="edgeStyle=orthogonalEdgeStyle;rounded=0;orthogonalLoop=1;jettySize=auto;html=1;" edge="1" parent="1" source="L97sJZusxxm4LGBCyc9_-1808" target="L97sJZusxxm4LGBCyc9_-1811">
          <mxGeometry relative="1" as="geometry" />
        </mxCell>
        <mxCell id="L97sJZusxxm4LGBCyc9_-1808" value="Занесение информации об успешном платеже" style="whiteSpace=wrap;html=1;fontSize=14;fillColor=#64bbe2;strokeColor=none;fontColor=#FFFFFF;rounded=1;shadow=0;labelBackgroundColor=none;strokeWidth=3;spacing=5;arcSize=7;" vertex="1" parent="1">
          <mxGeometry x="510" y="827" width="120" height="80" as="geometry" />
        </mxCell>
        <mxCell id="L97sJZusxxm4LGBCyc9_-1811" value="Переход на основную страницу" style="whiteSpace=wrap;html=1;fontSize=14;fillColor=#64bbe2;strokeColor=none;fontColor=#FFFFFF;rounded=1;shadow=0;labelBackgroundColor=none;strokeWidth=3;spacing=5;arcSize=7;" vertex="1" parent="1">
          <mxGeometry x="510" y="960" width="120" height="60" as="geometry" />
        </mxCell>
        <mxCell id="L97sJZusxxm4LGBCyc9_-1814" value="" style="endArrow=classic;html=1;rounded=0;strokeColor=#2F5B7C;strokeWidth=3;" edge="1" parent="1">
          <mxGeometry width="50" height="50" relative="1" as="geometry">
            <mxPoint x="530" y="380" as="sourcePoint" />
            <mxPoint x="160" y="230" as="targetPoint" />
          </mxGeometry>
        </mxCell>
        <mxCell id="L97sJZusxxm4LGBCyc9_-1815" value="Даты занятий&lt;br&gt;материалы&lt;br&gt;данные об оплате" style="whiteSpace=wrap;html=1;fontSize=14;fillColor=#f08e81;strokeColor=none;fontColor=#FFFFFF;rounded=1;shadow=0;labelBackgroundColor=none;strokeWidth=3;spacing=5;fontStyle=0;arcSize=7;" vertex="1" parent="1">
          <mxGeometry x="-180" y="378.5" width="120" height="74" as="geometry" />
        </mxCell>
        <mxCell id="L97sJZusxxm4LGBCyc9_-1819" value="" style="edgeStyle=orthogonalEdgeStyle;rounded=0;orthogonalLoop=1;jettySize=auto;html=1;strokeColor=#050505;strokeWidth=1;" edge="1" parent="1" source="L97sJZusxxm4LGBCyc9_-1817" target="L97sJZusxxm4LGBCyc9_-1818">
          <mxGeometry relative="1" as="geometry" />
        </mxCell>
        <mxCell id="L97sJZusxxm4LGBCyc9_-1821" value="" style="edgeStyle=orthogonalEdgeStyle;rounded=0;orthogonalLoop=1;jettySize=auto;html=1;strokeColor=#050505;strokeWidth=1;" edge="1" parent="1" source="L97sJZusxxm4LGBCyc9_-1817" target="L97sJZusxxm4LGBCyc9_-1820">
          <mxGeometry relative="1" as="geometry" />
        </mxCell>
        <mxCell id="L97sJZusxxm4LGBCyc9_-1817" value="&lt;b&gt;API&lt;/b&gt;" style="rounded=1;whiteSpace=wrap;html=1;fillColor=#008a00;fontColor=#ffffff;strokeColor=#005700;" vertex="1" parent="1">
          <mxGeometry x="40" y="170.5" width="120" height="60" as="geometry" />
        </mxCell>
        <mxCell id="L97sJZusxxm4LGBCyc9_-1818" value="Расписание" style="whiteSpace=wrap;html=1;fillColor=#60a917;strokeColor=#2D7600;fontColor=#ffffff;rounded=1;" vertex="1" parent="1">
          <mxGeometry x="-160" y="170.5" width="120" height="60" as="geometry" />
        </mxCell>
        <mxCell id="L97sJZusxxm4LGBCyc9_-1820" value="Авторизация/регистрацию" style="whiteSpace=wrap;html=1;fillColor=#60a917;strokeColor=#2D7600;fontColor=#ffffff;rounded=1;" vertex="1" parent="1">
          <mxGeometry x="40" y="30.5" width="120" height="60" as="geometry" />
        </mxCell>
      </root>
    </mxGraphModel>
  </diagram>
</mxfile>
